<?xml version="1.0" encoding="UTF-8" standalone="no"?>
<svg
   xmlns:dc="http://purl.org/dc/elements/1.1/"
   xmlns:cc="http://creativecommons.org/ns#"
   xmlns:rdf="http://www.w3.org/1999/02/22-rdf-syntax-ns#"
   xmlns:svg="http://www.w3.org/2000/svg"
   xmlns="http://www.w3.org/2000/svg"
   xmlns:sodipodi="http://sodipodi.sourceforge.net/DTD/sodipodi-0.dtd"
   xmlns:inkscape="http://www.inkscape.org/namespaces/inkscape"
   enable-background="new 0 0 515.91 728.5"
   height="512"
   id="Layer_1"
   version="1.1"
   viewBox="0 0 512.00003 512"
   width="512"
   xml:space="preserve"
   sodipodi:docname="photon_dark.svg"
   inkscape:version="0.92.3 (2405546, 2018-03-11)"><metadata
     id="metadata3753"><rdf:RDF><cc:Work
         rdf:about=""><dc:format>image/svg+xml</dc:format><dc:type
           rdf:resource="http://purl.org/dc/dcmitype/StillImage" /><dc:title></dc:title></cc:Work></rdf:RDF></metadata><sodipodi:namedview
     pagecolor="#000000"
     bordercolor="#666666"
     borderopacity="1"
     objecttolerance="10"
     gridtolerance="10"
     guidetolerance="10"
     inkscape:pageopacity="0"
     inkscape:pageshadow="2"
     inkscape:window-width="1366"
     inkscape:window-height="705"
     id="namedview3751"
     showgrid="false"
     inkscape:zoom="1.046875"
     inkscape:cx="51.582085"
     inkscape:cy="256"
     inkscape:window-x="1672"
     inkscape:window-y="700"
     inkscape:window-maximized="1"
     inkscape:current-layer="g14726" /><defs
     id="defs7" /><g
     id="g14726"
     transform="translate(18601.405,8345.2208)"><path
       d="m -7409.443,57840.461 c 0,29.063 -23.5605,52.624 -52.6239,52.624 -29.0634,0 -52.6239,-23.561 -52.6239,-52.624 0,-29.063 23.5605,-52.624 52.6239,-52.624 29.0634,0 52.6239,23.561 52.6239,52.624 z"
       id="path17518"
       style="fill:#15e215;fill-opacity:1;stroke:none"
       transform="matrix(0.27829196,-0.30553046,0.30553046,0.27829196,-33828.812,-26522.104)"
       inkscape:connector-curvature="0"
       inkscape:label="green2" /><path
       d="m -18262.489,-8126.5435 -87.359,87.5773 a 7.9658634,7.9658634 0 1 0 11.281,11.2496 l 87.825,-88.0427 c -4.725,-2.5181 -8.828,-6.1221 -11.747,-10.7842 z"
       id="path17520"
       style="color:#000000;font-style:normal;font-variant:normal;font-weight:normal;font-stretch:normal;font-size:medium;line-height:normal;font-family:Sans;-inkscape-font-specification:Sans;text-indent:0;text-align:start;text-decoration:none;text-decoration-line:none;letter-spacing:normal;word-spacing:normal;text-transform:none;writing-mode:lr-tb;direction:ltr;baseline-shift:baseline;text-anchor:start;display:inline;overflow:visible;visibility:visible;fill:#ffffff;fill-opacity:1;stroke:none;stroke-width:15.99999905;marker:none;enable-background:accumulate"
       inkscape:connector-curvature="0" /><path
       d="m -7409.443,57840.461 c 0,29.063 -23.5605,52.624 -52.6239,52.624 -29.0634,0 -52.6239,-23.561 -52.6239,-52.624 0,-29.063 23.5605,-52.624 52.6239,-52.624 29.0634,0 52.6239,23.561 52.6239,52.624 z"
       id="path17528"
       style="fill:#15e215;fill-opacity:1;stroke:none"
       transform="matrix(0.09983553,-0.40103385,0.40103385,0.09983553,-40750.659,-16952.398)"
       inkscape:connector-curvature="0"
       inkscape:label="green1" /><path
       d="m -18316.067,-8154.8863 -35.77,119.2446 a 7.9642165,7.9642165 0 0 0 15.259,4.5687 l 35.957,-119.9905 c -5.359,-0.187 -10.696,-1.4639 -15.446,-3.8228 z"
       id="path17530"
       style="color:#000000;font-style:normal;font-variant:normal;font-weight:normal;font-stretch:normal;font-size:medium;line-height:normal;font-family:Sans;-inkscape-font-specification:Sans;text-indent:0;text-align:start;text-decoration:none;text-decoration-line:none;letter-spacing:normal;word-spacing:normal;text-transform:none;writing-mode:lr-tb;direction:ltr;baseline-shift:baseline;text-anchor:start;display:inline;overflow:visible;visibility:visible;fill:#ffffff;fill-opacity:1;stroke:none;stroke-width:15.99999905;marker:none;enable-background:accumulate"
       inkscape:connector-curvature="0" /><path
       d="m -7409.443,57840.461 c 0,29.063 -23.5605,52.624 -52.6239,52.624 -29.0634,0 -52.6239,-23.561 -52.6239,-52.624 0,-29.063 23.5605,-52.624 52.6239,-52.624 29.0634,0 52.6239,23.561 52.6239,52.624 z"
       id="path17534"
       style="fill:#15e215;fill-opacity:1;stroke:none"
       transform="matrix(-0.32146396,-0.25972331,0.25972331,-0.32146396,-35881.959,8526.4246)"
       inkscape:connector-curvature="0"
       inkscape:label="red" /><path
       d="m -18429.407,-8113.9255 c -0.649,1.3405 -1.377,2.6354 -2.238,3.8844 -2.017,3.4519 -4.664,6.2832 -7.707,8.5466 l 90.094,74.2751 a 7.9579388,7.9579388 0 0 0 10.131,-12.2749 z"
       id="path17536"
       style="color:#000000;font-style:normal;font-variant:normal;font-weight:normal;font-stretch:normal;font-size:medium;line-height:normal;font-family:Sans;-inkscape-font-specification:Sans;text-indent:0;text-align:start;text-decoration:none;text-decoration-line:none;letter-spacing:normal;word-spacing:normal;text-transform:none;writing-mode:lr-tb;direction:ltr;baseline-shift:baseline;text-anchor:start;display:inline;overflow:visible;visibility:visible;fill:#ffffff;fill-opacity:1;stroke:none;stroke-width:15.99999905;marker:none;enable-background:accumulate"
       inkscape:connector-curvature="0" /><path
       d="m -18123.512,-7970.2812 c -15.021,-6.3568 -32.575,0.7568 -38.932,15.7785 -6.357,15.0206 0.757,32.5753 15.778,38.932 15.021,6.3568 32.575,-0.7578 38.932,-15.7785 6.357,-15.0207 -0.757,-32.5753 -15.778,-38.932 z m -6.201,14.6527 c 7.101,3.0053 10.332,10.9761 7.326,18.0787 -3.005,7.1007 -10.976,10.3317 -18.078,7.3264 -7.101,-3.0053 -10.332,-10.9771 -7.326,-18.0787 3.005,-7.1016 10.976,-10.3317 18.078,-7.3264 z"
       id="path17542"
       style="color:#000000;font-style:normal;font-variant:normal;font-weight:normal;font-stretch:normal;font-size:medium;line-height:normal;font-family:Sans;-inkscape-font-specification:Sans;text-indent:0;text-align:start;text-decoration:none;text-decoration-line:none;letter-spacing:normal;word-spacing:normal;text-transform:none;writing-mode:lr-tb;direction:ltr;baseline-shift:baseline;text-anchor:start;display:inline;overflow:visible;visibility:visible;fill:#ffffff;fill-opacity:1;stroke:none;stroke-width:38.5017128;marker:none;enable-background:accumulate"
       inkscape:connector-curvature="0"
       inkscape:label="end3" /><path
       d="m -18344.13,-8041.36 a 7.9566711,7.9566711 0 0 0 -3.232,15.3221 l 192.277,83.2572 c -0.377,-1.1705 -0.59,-2.3957 -0.59,-3.6677 0,-4.5348 2.564,-8.5625 6.526,-11.0944 l -191.904,-83.1021 a 7.9566711,7.9566711 0 0 0 -3.077,-0.7151 z"
       id="path17544"
       style="color:#000000;font-style:normal;font-variant:normal;font-weight:normal;font-stretch:normal;font-size:medium;line-height:normal;font-family:Sans;-inkscape-font-specification:Sans;text-indent:0;text-align:start;text-decoration:none;text-decoration-line:none;letter-spacing:normal;word-spacing:normal;text-transform:none;writing-mode:lr-tb;direction:ltr;baseline-shift:baseline;text-anchor:start;display:inline;overflow:visible;visibility:visible;fill:#ffffff;fill-opacity:1;stroke:none;stroke-width:15.99999905;marker:none;enable-background:accumulate"
       inkscape:connector-curvature="0" /><path
       d="m -18546.436,-7931.5182 c 15.495,-5.0948 24.036,-22 18.942,-37.4961 -5.094,-15.494 -22.001,-24.0347 -37.496,-18.9409 -15.495,5.0947 -24.035,22.001 -18.941,37.496 5.094,15.4951 22.001,24.0347 37.495,18.941 z m -4.969,-15.1152 c -7.325,2.4077 -15.002,-1.4698 -17.411,-8.7952 -2.408,-7.3264 1.47,-15.0028 8.796,-17.4114 7.325,-2.4087 15.002,1.4698 17.41,8.7952 2.409,7.3263 -1.469,15.0028 -8.795,17.4114 z"
       id="path17550"
       style="color:#000000;font-style:normal;font-variant:normal;font-weight:normal;font-stretch:normal;font-size:medium;line-height:normal;font-family:Sans;-inkscape-font-specification:Sans;text-indent:0;text-align:start;text-decoration:none;text-decoration-line:none;letter-spacing:normal;word-spacing:normal;text-transform:none;writing-mode:lr-tb;direction:ltr;baseline-shift:baseline;text-anchor:start;display:inline;overflow:visible;visibility:visible;fill:#ffffff;fill-opacity:1;stroke:none;stroke-width:38.5017128;marker:none;enable-background:accumulate"
       inkscape:connector-curvature="0"
       inkscape:label="end2" /><path
       d="m -18343.943,-8041.36 a 7.9566711,7.9566711 0 0 0 -0.809,0.03 7.9566711,7.9566711 0 0 0 -2.082,0.4654 l -188.796,65.9781 c 1.948,3.0123 3.107,6.7605 3.107,10.8458 0,1.7871 -0.24,3.5314 -0.652,5.1594 l 191.593,-66.9726 a 7.9566711,7.9566711 0 0 0 -2.361,-15.508 z"
       id="path17552"
       style="color:#000000;font-style:normal;font-variant:normal;font-weight:normal;font-stretch:normal;font-size:medium;line-height:normal;font-family:Sans;-inkscape-font-specification:Sans;text-indent:0;text-align:start;text-decoration:none;text-decoration-line:none;letter-spacing:normal;word-spacing:normal;text-transform:none;writing-mode:lr-tb;direction:ltr;baseline-shift:baseline;text-anchor:start;display:inline;overflow:visible;visibility:visible;fill:#ffffff;fill-opacity:1;stroke:none;stroke-width:15.99999905;marker:none;enable-background:accumulate"
       inkscape:connector-curvature="0" /><path
       d="m -18407.976,-8252.4702 c 2.335,16.1425 17.507,27.4816 33.65,25.1465 16.143,-2.335 27.481,-17.5069 25.146,-33.6503 -2.334,-16.1425 -17.507,-27.4806 -33.65,-25.1466 -16.143,2.3351 -27.481,17.5079 -25.146,33.6504 z m 15.747,-2.2774 c -1.104,-7.6326 4.045,-14.5214 11.677,-15.6253 7.632,-1.1039 14.521,4.0446 15.625,11.6762 1.104,7.6327 -4.045,14.5215 -11.676,15.6254 -7.633,1.1039 -14.522,-4.0446 -15.626,-11.6763 z"
       id="path17560"
       style="color:#000000;font-style:normal;font-variant:normal;font-weight:normal;font-stretch:normal;font-size:medium;line-height:normal;font-family:Sans;-inkscape-font-specification:Sans;text-indent:0;text-align:start;text-decoration:none;text-decoration-line:none;letter-spacing:normal;word-spacing:normal;text-transform:none;writing-mode:lr-tb;direction:ltr;baseline-shift:baseline;text-anchor:start;display:inline;overflow:visible;visibility:visible;fill:#ffffff;fill-opacity:1;stroke:none;stroke-width:38.5017128;marker:none;enable-background:accumulate"
       inkscape:connector-curvature="0"
       inkscape:label="end1" /><path
       d="m -18368.557,-8242.8356 c -2.778,2.3231 -6.4,3.7293 -10.38,3.7293 -1.838,0 -3.612,-0.3182 -5.252,-0.8701 a 7.9566711,7.9566711 0 0 0 0,0.06 l 32.134,207.7856 a 7.9566711,7.9566711 0 1 0 15.726,-2.4245 l -32.135,-207.7846 a 7.9566711,7.9566711 0 0 0 -0.09,-0.4973 z"
       id="path17562"
       style="color:#000000;font-style:normal;font-variant:normal;font-weight:normal;font-stretch:normal;font-size:medium;line-height:normal;font-family:Sans;-inkscape-font-specification:Sans;text-indent:0;text-align:start;text-decoration:none;text-decoration-line:none;letter-spacing:normal;word-spacing:normal;text-transform:none;writing-mode:lr-tb;direction:ltr;baseline-shift:baseline;text-anchor:start;display:inline;overflow:visible;visibility:visible;fill:#ffffff;fill-opacity:1;stroke:none;stroke-width:15.99999905;marker:none;enable-background:accumulate"
       inkscape:connector-curvature="0" /><path
       d="m -7409.443,57840.461 c 0,29.063 -23.5605,52.624 -52.6239,52.624 -29.0634,0 -52.6239,-23.561 -52.6239,-52.624 0,-29.063 23.5605,-52.624 52.6239,-52.624 29.0634,0 52.6239,23.561 52.6239,52.624 z"
       id="path17566"
       style="fill:#15e215;fill-opacity:1;stroke:none"
       transform="matrix(0.25901342,0.32203623,-0.32203623,0.25901342,2303.4666,-20492.165)"
       inkscape:connector-curvature="0"
       inkscape:label="blue" /><path
       d="m -18344.627,-8041.3908 a 7.9566711,7.9566711 0 0 0 -5.998,12.7105 l 67.904,93.4199 c 3.311,-4.3051 7.485,-7.8704 12.307,-10.1626 l -67.345,-92.6114 a 7.9566711,7.9566711 0 0 0 -6.868,-3.3564 z"
       id="path17568"
       style="color:#000000;font-style:normal;font-variant:normal;font-weight:normal;font-stretch:normal;font-size:medium;line-height:normal;font-family:Sans;-inkscape-font-specification:Sans;text-indent:0;text-align:start;text-decoration:none;text-decoration-line:none;letter-spacing:normal;word-spacing:normal;text-transform:none;writing-mode:lr-tb;direction:ltr;baseline-shift:baseline;text-anchor:start;display:inline;overflow:visible;visibility:visible;fill:#ffffff;fill-opacity:1;stroke:none;stroke-width:15.99999905;marker:none;enable-background:accumulate"
       inkscape:connector-curvature="0" /></g></svg>